<svg xmlns="http://www.w3.org/2000/svg" width="193" height="32" viewBox="0 0 193 32" fill="none">
    <g clip-path="url(#clip0_122_874)">
        <path d="M110.214 18.6057C109.931 18.7586 109.798 18.9846 109.725 19.2405C109.541 19.8743 109.469 20.516 109.64 21.168C109.783 21.7119 110.068 22.1672 110.505 22.5158C111.663 23.441 112.971 23.7071 114.403 23.3538C115.073 23.1884 115.622 22.8137 116.038 22.2642C116.966 21.0366 117.272 19.6538 116.877 18.1746C116.586 17.084 116.182 16.0224 115.796 14.9589C115.516 14.1847 115.21 13.4204 115.121 12.5951C114.956 11.0776 115.382 9.77545 116.668 8.88576C118.576 7.56498 120.619 7.43681 122.712 8.41039C123.521 8.78696 124.076 9.41799 124.232 10.3436C124.396 11.3171 124.017 12.1411 123.157 12.6156C122.62 12.9124 122.044 13.0616 121.357 13.0555C121.434 12.8728 121.492 12.7358 121.55 12.5988C121.852 11.889 122 11.1512 121.969 10.3771C121.929 9.35834 121.317 8.65647 120.314 8.49428C118.661 8.22723 117.399 9.29262 117.372 10.9634C117.358 11.8512 117.596 12.6808 117.906 13.4969C118.297 14.5259 118.705 15.5489 119.088 16.5807C119.234 16.9722 119.334 17.3804 119.449 17.7831C119.822 19.0997 119.497 20.2718 118.674 21.32C118.011 22.164 117.175 22.7987 116.193 23.2382C116.039 23.3072 115.886 23.379 115.742 23.4736C116.884 23.3328 117.968 22.9931 119.022 22.5457C121.281 21.5861 123.222 20.1581 125.004 18.4924C125.496 18.032 125.874 17.5077 126.212 16.9209C127.01 15.5372 127.856 14.1796 128.725 12.8402C129.503 11.6429 130.339 10.4843 131.148 9.30754C131.234 9.18357 131.31 9.05354 131.445 8.84009C130.629 8.80886 129.893 8.84009 129.11 8.81679C129.168 8.65693 129.209 8.54601 129.25 8.43463C129.323 8.23329 129.459 8.15966 129.678 8.16385C130.299 8.1769 130.92 8.15546 131.541 8.1741C131.807 8.18203 131.962 8.08602 132.108 7.86931C133.128 6.34859 134.168 4.84092 135.182 3.31554C135.37 3.03311 135.572 2.93244 135.902 2.9441C136.585 2.96833 137.268 2.95109 137.952 2.95295C138.009 2.95295 138.066 2.96786 138.206 2.98744C137.049 4.7258 135.893 6.39799 134.715 8.15593H140.53C140.575 8.42717 140.401 8.58423 140.352 8.81539C140.158 8.81539 139.99 8.81539 139.821 8.81539C138.097 8.81539 136.374 8.81818 134.65 8.81213C134.417 8.81119 134.248 8.855 134.107 9.07265C132.344 11.7948 130.547 14.4951 128.813 17.236C128.194 18.2156 127.701 19.2782 127.195 20.3245C126.989 20.7514 126.86 21.2277 126.771 21.6961C126.593 22.624 127.027 23.2303 127.946 23.433C128.505 23.5561 129.058 23.5015 129.608 23.3822C130.608 23.1651 131.508 22.7162 132.367 22.1789C134.023 21.1429 135.463 19.8458 136.838 18.4705C137.025 18.2841 137.205 18.0902 137.388 17.901C138.004 17.2658 138.555 16.5984 138.969 15.794C139.635 14.5021 140.6 13.4172 141.632 12.3998C142.943 11.1088 144.353 9.94556 145.984 9.07451C147.414 8.31066 148.92 7.83109 150.565 7.85999C152.175 7.88842 153.314 8.62244 153.973 10.0844C154.138 10.4498 154.233 10.8464 154.369 11.2253C154.541 11.7058 154.677 12.2064 154.908 12.658C155.695 14.1987 156.892 14.6592 158.443 14.4704C159.374 14.3572 160.197 13.9601 160.947 13.4144C161.092 13.3095 161.202 13.1464 161.302 12.9931C162.257 11.5222 163.215 10.0528 164.151 8.56978C164.338 8.27198 164.537 8.14801 164.897 8.16245C165.655 8.19368 166.416 8.17177 167.164 8.17177C167.183 8.20673 167.193 8.21978 167.198 8.23376C167.203 8.24727 167.211 8.26731 167.205 8.2757C165.467 10.8245 163.728 13.3724 162.031 15.9641C162.145 15.8541 162.262 15.7469 162.373 15.6337C164.624 13.337 166.972 11.1438 169.485 9.13463C169.98 8.73849 170.522 8.39967 171.052 8.0492C171.343 7.85672 171.67 7.78122 172.026 7.79474C172.487 7.81198 172.949 7.79893 173.515 7.79893C173.349 7.99235 173.246 8.11678 173.138 8.23516C172.529 8.90487 171.981 9.61606 171.633 10.461C171.315 11.2361 171.178 12.0353 171.32 12.8737C171.489 13.866 172.101 14.3912 173.111 14.4108C173.653 14.4215 174.156 14.2835 174.639 14.0589C175.364 13.722 176.006 13.2718 176.557 12.6859C177.892 11.2659 179.341 9.98144 181.057 9.02977C182.422 8.27291 183.87 7.79148 185.445 7.80965C185.855 7.81431 186.279 7.90846 186.669 8.04268C187.561 8.35027 188.094 9.0843 187.733 10.3352C187.62 10.7229 187.385 11.1107 187.108 11.4062C186.686 11.855 186.21 12.2665 185.703 12.617C184.289 13.5947 182.718 14.2738 181.104 14.833C179.787 15.2888 178.439 15.6579 177.101 16.0545C176.899 16.1147 176.734 16.1724 176.635 16.384C175.993 17.7472 175.537 19.1514 175.606 20.6843C175.631 21.2491 175.738 21.7921 175.984 22.3038C176.246 22.8477 176.674 23.166 177.27 23.2643C178.105 23.4018 178.91 23.2438 179.703 23.015C181.06 22.624 182.29 21.9599 183.436 21.1522C186.934 18.6863 189.926 15.7167 192.308 12.1481C192.368 12.0577 192.427 11.9663 192.489 11.8773C192.506 11.8531 192.535 11.8368 192.573 11.8042C192.621 11.8237 192.679 11.841 192.73 11.8708C192.809 11.9174 192.883 11.9724 192.999 12.0507C192.916 12.2059 192.843 12.3541 192.759 12.4962C191.785 14.1498 190.604 15.6458 189.27 17.0225C187.427 18.9249 185.426 20.6377 183.174 22.0433C181.811 22.8943 180.373 23.5831 178.793 23.9336C177.66 24.1848 176.52 24.2649 175.38 23.9736C173.976 23.6153 173.121 22.6454 172.915 21.2072C172.698 19.6962 173.009 18.2683 173.633 16.9074C173.948 16.2195 174.369 15.5801 174.745 14.9202C174.82 14.7883 174.909 14.6643 174.942 14.456C174.809 14.5082 174.674 14.559 174.541 14.6121C173.706 14.9458 172.851 15.1224 171.948 14.9714C170.624 14.7501 169.723 13.8511 169.482 12.5261C169.334 11.7128 169.38 10.9205 169.669 10.1441C169.7 10.0616 169.72 9.97539 169.778 9.78151C164.585 13.5821 160.261 17.9896 157.537 23.7849H154.504C156.459 20.6656 158.375 17.6107 160.335 14.4835C158.044 15.3373 155.982 15.3494 154.315 13.2769C154.24 13.4544 154.172 13.6022 154.115 13.7541C152.696 17.4834 150.235 20.3627 146.914 22.5252C145.677 23.3305 144.316 23.8487 142.844 24.031C142.041 24.1302 141.23 24.1643 140.438 23.9517C139.018 23.5705 138.213 22.5993 137.903 21.1988C137.696 20.2611 137.745 19.3174 137.933 18.3797C137.948 18.3046 137.958 18.2287 137.967 18.1532C137.968 18.1401 137.955 18.1257 137.926 18.0623C137.798 18.1932 137.682 18.3107 137.568 18.43C136.082 19.9829 134.498 21.4202 132.679 22.5788C131.612 23.2583 130.487 23.8105 129.224 24.0226C128.608 24.126 127.988 24.1405 127.374 23.9993C125.548 23.5789 124.511 21.965 124.899 20.1371C124.975 19.7773 125.084 19.425 125.209 18.951C125.008 19.13 124.887 19.2363 124.768 19.3444C122.981 20.9616 121.026 22.3154 118.763 23.1884C117.05 23.8492 115.275 24.1894 113.438 24.1503C111.93 24.1181 110.55 23.6978 109.487 22.5625C108.397 21.3978 108.108 20.0104 108.566 18.5008C109 17.0682 110.408 16.2787 111.771 16.6292C112.425 16.7974 112.782 17.2229 112.798 17.8922C112.804 18.1219 112.77 18.3564 112.726 18.5833C112.64 19.0256 112.408 19.3737 111.95 19.4805C111.445 19.5984 110.954 19.5606 110.586 19.1253C110.457 18.9729 110.352 18.8005 110.213 18.6043L110.214 18.6057ZM140.278 20.9285C140.299 21.2062 140.305 21.4868 140.347 21.7613C140.381 21.9897 140.44 22.218 140.519 22.4357C140.765 23.1143 141.204 23.4186 141.924 23.4456C142.504 23.4675 143.067 23.3818 143.619 23.2047C144.658 22.8714 145.544 22.2824 146.348 21.56C147.736 20.3128 148.806 18.8117 149.765 17.2271C150.661 15.7465 151.385 14.1894 151.73 12.4809C151.89 11.6904 152.02 10.8912 151.88 10.0807C151.666 8.83496 150.838 8.23376 149.591 8.38662C148.902 8.47144 148.266 8.69655 147.664 9.0321C146.927 9.44362 146.268 9.96327 145.686 10.5691C143.676 12.6598 142.09 15.0353 140.983 17.7179C140.561 18.7404 140.294 19.8076 140.277 20.928L140.278 20.9285ZM177.112 15.4617C177.137 15.4943 177.161 15.527 177.186 15.5596C177.674 15.424 178.167 15.3028 178.65 15.1504C180.451 14.5832 182.151 13.8049 183.676 12.678C184.228 12.2702 184.719 11.7972 185.09 11.2123C185.422 10.688 185.613 10.1189 185.561 9.49396C185.502 8.76645 185.076 8.38709 184.349 8.46632C183.956 8.50919 183.544 8.60753 183.197 8.78836C182.664 9.06519 182.14 9.38723 181.682 9.77359C179.925 11.2584 178.479 13.0098 177.339 15.0111C177.256 15.1569 177.188 15.3112 177.113 15.4617H177.112Z"
              fill="#313943"/>
        <path d="M18.5339 23.9643C18.4211 23.6749 18.2985 23.3743 18.1867 23.07C17.7313 21.8336 17.2741 20.5976 16.8305 19.357C16.7428 19.1114 16.6454 18.9767 16.3462 18.9776C12.5423 18.9883 8.73843 18.9846 4.93453 18.986C4.8581 18.986 4.7812 18.9995 4.6577 19.0112C4.05883 20.6577 3.45576 22.315 2.84803 23.9848H0C2.90582 16.062 5.79766 8.17784 8.69462 0.279236H12.4738C15.416 8.14475 18.3638 16.0252 21.3115 23.9052C21.016 24.0287 19.2642 24.0645 18.5339 23.9643ZM10.6716 2.57127C10.3743 3.06575 5.53993 16.6227 5.53434 16.9405H15.897C14.1493 12.1346 12.4193 7.3781 10.6716 2.57127Z"
              fill="#313943"/>
        <path d="M44.4301 22.1416V31.1233H42.0723C41.9721 30.7957 41.9321 8.20717 42.0341 7.42281H44.4156C44.3839 8.08553 44.3537 8.72915 44.321 9.41098C44.3975 9.37509 44.4478 9.3681 44.465 9.3406C45.1753 8.21696 46.2449 7.64558 47.5046 7.37714C49.0743 7.04298 50.6444 7.04997 52.2154 7.38646C54.0186 7.77235 55.1837 8.83028 55.7169 10.6045C56.0133 11.5916 56.1778 12.5983 56.2575 13.6199C56.3726 15.0917 56.3866 16.5653 56.2617 18.038C56.1815 18.9827 56.0282 19.9125 55.7458 20.8217C55.2163 22.5265 54.0964 23.5891 52.3548 23.9881C50.6463 24.38 48.9335 24.3679 47.2357 23.9499C46.1731 23.6884 45.2382 23.1846 44.5923 22.2525C44.5704 22.2208 44.5252 22.2054 44.4306 22.1416H44.4301ZM44.4399 15.9124C44.4641 16.4101 44.4795 17.1553 44.5419 17.8968C44.6058 18.6541 44.7358 19.4021 44.987 20.1264C45.2694 20.9406 45.7989 21.5175 46.6075 21.8074C48.206 22.3802 49.8325 22.3872 51.4567 21.9417C52.3273 21.703 52.9793 21.1755 53.2496 20.276C53.3787 19.8468 53.505 19.411 53.5702 18.9692C53.8653 16.9773 53.8308 14.9761 53.6299 12.9809C53.5609 12.2935 53.3698 11.6131 53.1783 10.9452C53.0077 10.3496 52.5771 9.93622 52.0211 9.67476C51.7424 9.5438 51.4465 9.43381 51.1468 9.36624C49.8889 9.08381 48.6231 9.09966 47.3569 9.31777C45.9023 9.56804 45.0592 10.4083 44.7806 11.8699C44.5405 13.1273 44.4832 14.3935 44.4403 15.9124H44.4399Z"
              fill="#313943"/>
        <path d="M97.2765 16.1557H85.4081C85.3792 16.22 85.3456 16.2601 85.3447 16.3011C85.3246 17.5771 85.4048 18.8425 85.6998 20.0905C85.9147 20.9993 86.4213 21.636 87.3389 21.8709C87.9219 22.02 88.5194 22.1579 89.1169 22.198C90.3883 22.2833 91.662 22.2623 92.924 22.0428C93.0764 22.0163 93.2274 21.979 93.3775 21.9412C94.202 21.7343 94.6247 21.1732 94.744 20.3618C94.7887 20.0556 94.7943 19.7438 94.8171 19.4344C94.8269 19.2992 94.8353 19.1636 94.8456 19.007H97.2737C97.2919 19.1235 97.3231 19.2409 97.3273 19.3593C97.352 20.0458 97.2844 20.7216 97.0891 21.3838C96.7676 22.4739 96.0652 23.2019 95.0096 23.6069C94.2057 23.9154 93.3677 24.0715 92.5167 24.1526C90.858 24.3111 89.1994 24.3181 87.5454 24.0781C86.8519 23.9774 86.1798 23.7984 85.5302 23.5323C84.4666 23.0966 83.8081 22.3052 83.4493 21.2296C83.103 20.1917 82.9282 19.1221 82.8457 18.0371C82.7054 16.1916 82.7017 14.3456 82.9198 12.5042C83.0205 11.6541 83.2097 10.8222 83.5075 10.0192C83.9018 8.95616 84.6395 8.22306 85.6863 7.79104C86.425 7.48624 87.1986 7.32545 87.9867 7.23923C89.7409 7.04722 91.4905 7.10594 93.2284 7.414C93.9181 7.53611 94.5846 7.7393 95.2007 8.08698C95.7595 8.40249 96.1673 8.85503 96.4502 9.4278C96.8473 10.2317 97.0738 11.0911 97.1404 11.9738C97.2383 13.2727 97.2625 14.5767 97.3156 15.8789C97.3184 15.953 97.2951 16.028 97.2765 16.1557ZM94.8162 14.2099C94.7845 13.2461 94.7943 12.322 94.6195 11.4043C94.3944 10.2243 93.6949 9.55037 92.5149 9.36349C92.4841 9.35883 92.4533 9.3551 92.423 9.34904C91.2258 9.11601 90.0164 9.11555 88.8098 9.21901C88.2743 9.26515 87.7406 9.39331 87.2205 9.53639C86.459 9.74565 85.9599 10.2644 85.7581 11.0222C85.6113 11.5735 85.5101 12.1402 85.4374 12.7065C85.375 13.1921 85.3806 13.6866 85.3549 14.2095H94.8167L94.8162 14.2099Z"
              fill="#313943"/>
        <path d="M37.2782 11.7068H34.8827C34.8455 11.3987 34.8175 11.0944 34.7681 10.7933C34.7355 10.5957 34.6889 10.3967 34.618 10.2098C34.4661 9.80997 34.2004 9.5117 33.76 9.4376C33.1952 9.34253 32.6271 9.2111 32.059 9.20318C30.8342 9.18593 29.6085 9.22601 28.3837 9.26889C28.063 9.28008 27.7424 9.37562 27.4269 9.45345C26.9851 9.56297 26.6882 9.85658 26.5498 10.2788C26.252 11.189 26.2138 12.1179 26.5507 13.0192C26.904 13.9629 27.6977 14.3293 28.6395 14.394C29.8937 14.4807 31.1516 14.5203 32.4066 14.5958C33.0409 14.6341 33.6813 14.662 34.3048 14.7715C36.1714 15.1001 37.3435 16.2023 37.6599 18.0819C37.8725 19.3449 37.8249 20.5855 37.3682 21.794C37.0424 22.6562 36.4375 23.2434 35.5869 23.5878C34.7583 23.9234 33.8882 24.0748 33.0055 24.1582C31.2368 24.3251 29.4672 24.3181 27.7088 24.0613C27.0387 23.9634 26.3727 23.7807 25.7309 23.5598C24.7308 23.2154 24.1501 22.4502 23.8518 21.4589C23.589 20.5841 23.5755 19.6898 23.6551 18.7204C24.4824 18.7097 25.2942 18.7139 26.1741 18.7204C26.1741 19.0177 26.1536 19.2782 26.1788 19.5336C26.2198 19.9484 26.2543 20.3697 26.3592 20.7705C26.4962 21.293 26.8345 21.697 27.3649 21.8448C27.9288 22.0018 28.5091 22.1486 29.0902 22.1897C30.4231 22.2838 31.7583 22.267 33.0833 22.0414C34.453 21.8084 34.9555 21.306 35.1642 19.9358C35.2616 19.2969 35.222 18.6663 35.0277 18.0488C34.797 17.3162 34.2918 16.8772 33.5489 16.721C33.2777 16.6642 32.9957 16.6469 32.7179 16.6334C31.2923 16.564 29.8625 16.543 28.441 16.42C27.6599 16.3524 26.8825 16.1543 26.1224 15.9474C25.1078 15.671 24.4488 14.9859 24.1016 13.9923C23.7619 13.0192 23.6994 12.0163 23.8066 11.0059C23.8616 10.4857 23.9702 9.96237 24.1277 9.4637C24.4125 8.5605 25.037 7.97793 25.9458 7.68106C26.6901 7.43778 27.4539 7.31428 28.2262 7.24297C29.6504 7.11108 31.0784 7.07053 32.504 7.23132C33.5881 7.35343 34.6525 7.55336 35.6107 8.12148C36.6873 8.75903 37.24 9.70418 37.2778 10.9518C37.2848 11.183 37.2787 11.4151 37.2787 11.7073L37.2782 11.7068Z"
              fill="#313943"/>
        <path d="M70.9919 23.985H68.5898V7.42208H70.9858C70.9159 8.02375 70.8488 8.60072 70.7724 9.25971C70.8795 9.1679 70.9313 9.139 70.962 9.0952C71.8275 7.84898 73.0649 7.24032 74.5306 7.06974C75.5363 6.95276 76.5448 6.96209 77.5282 7.27387C78.7502 7.66116 79.5238 8.49073 79.9055 9.6936C80.2206 10.6863 80.2164 11.7111 80.1581 12.7374C80.1558 12.7803 80.1232 12.8217 80.1031 12.8679H77.7864C77.8022 12.5561 77.8283 12.2667 77.8288 11.9777C77.8293 11.6221 77.8405 11.2619 77.7911 10.9114C77.6895 10.1895 77.3315 9.59993 76.6395 9.33288C75.2371 8.7918 73.8623 8.88221 72.6016 9.74114C71.8797 10.2333 71.4873 10.9785 71.2659 11.8109C71.0697 12.5496 70.9919 13.3046 70.9919 14.0689C70.9928 17.1737 70.9919 20.2785 70.9919 23.3833C70.9919 23.5674 70.9919 23.7515 70.9919 23.9841V23.985Z"
              fill="#313943"/>
        <path d="M60.9331 7.4122H63.3025V23.9281C62.9809 24.0259 61.5763 24.0492 60.9331 23.9616V7.4122Z"
              fill="#313943"/>
        <path d="M63.2768 2.97775C63.2111 2.98567 63.1375 3.00245 63.0634 3.00245C62.3685 3.00431 61.6732 3.00385 60.9303 3.00385C60.8748 2.08293 60.8963 1.19697 60.9172 0.283981H63.2591C63.3556 0.62979 63.3701 2.47348 63.2768 2.97775Z"
              fill="#313943"/>
    </g>
    <defs>
        <clipPath id="clip0_122_874">
            <rect width="193" height="30.8441" fill="white" transform="translate(0 0.279236)"/>
        </clipPath>
    </defs>
</svg>