<svg xmlns="http://www.w3.org/2000/svg" id="Layer_1" viewBox="0 0 3579.09 673.98"><defs><style>.st0{fill:#fff}</style></defs><path d="M220.32 0 3579.09 0 3367.14 673.98 0 673.98 220.32 0z" style="fill:#0055a7;fill-rule:evenodd"/><path d="M445.84 222.15 438.74 222.15 444.5 189.4 436.04 189.4 436.81 185.01 452.38 185.01 445.84 222.15zM483.62 194.1c-.28 1.53.05 2.78.98 3.7.92.92 2.32 1.38 4.15 1.38s3.48-.45 4.74-1.32c1.24-.87 1.99-2.09 2.27-3.66.26-1.44-.09-2.62-1.04-3.56-.97-.94-2.32-1.38-4.08-1.38s-3.34.44-4.66 1.36c-1.33.92-2.12 2.09-2.36 3.48M478.29 210.92c-.35 1.99.14 3.63 1.49 4.94 1.35 1.3 3.2 1.95 5.57 1.95 2.48 0 4.66-.63 6.5-1.9 1.86-1.27 2.94-2.9 3.3-4.88.35-2.04-.12-3.68-1.44-4.92-1.33-1.24-3.25-1.85-5.76-1.85s-4.72.61-6.47 1.81c-1.76 1.23-2.82 2.84-3.17 4.86M480.46 201.57c-1.49-.87-2.55-1.95-3.19-3.2-.63-1.26-.81-2.68-.54-4.22.48-2.7 2.13-5.01 4.95-6.93 2.84-1.93 6.04-2.9 9.61-2.9s6.7.95 8.86 2.85c2.16 1.9 3.01 4.23 2.51 7.02-.28 1.58-.98 2.97-2.1 4.23-1.12 1.27-2.62 2.32-4.48 3.14 2.28.81 3.91 1.99 4.88 3.56.97 1.55 1.27 3.43.87 5.64-.61 3.53-2.56 6.42-5.83 8.71-3.28 2.27-7.16 3.42-11.65 3.42-4.17 0-7.48-1.15-9.93-3.47s-3.39-5.12-2.81-8.45c.4-2.25 1.32-4.14 2.76-5.67 1.43-1.55 3.47-2.79 6.07-3.74M528.17 222.15 520.73 222.15 544.88 190.15 524.27 190.15 525.18 185.01 552.48 185.01 551.49 190.66 528.17 222.15zM433.26 160.07h6.29c-.35 1.96-.09 3.59.77 4.86.87 1.26 2.13 1.89 3.77 1.89s2.91-.46 4.09-1.43c1.17-.95 1.87-2.16 2.15-3.65.23-1.32.06-2.42-.49-3.33-.55-.89-1.55-1.67-3.01-2.3-.51-.21-1.23-.52-2.16-.86-2.45-1.01-3.99-1.79-4.6-2.38-1.13-1.04-1.92-2.25-2.3-3.59-.4-1.35-.44-2.9-.14-4.65.54-3.02 2.04-5.57 4.52-7.7 2.47-2.12 5.23-3.17 8.26-3.17s5.53.93 7.07 2.77c1.55 1.87 2.12 4.48 1.7 7.84h-6.41c.12-1.37-.14-2.44-.8-3.21-.64-.77-1.64-1.15-2.96-1.15-1.2 0-2.27.41-3.22 1.23-.94.81-1.5 1.84-1.72 3.05-.37 2.07 1.12 3.77 4.49 5.11.95.38 1.7.69 2.24.9 2.64 1.15 4.4 2.58 5.31 4.28.9 1.72 1.09 4 .6 6.85-.6 3.34-2.21 6.1-4.85 8.31-2.64 2.22-5.67 3.31-9.09 3.31s-6.01-1.17-7.73-3.48c-1.7-2.32-2.3-5.49-1.79-9.52M467.36 172.09 473.91 134.95 480.52 134.95 473.97 172.09 467.36 172.09zM493.99 172.09h-6.68l6.55-37.13h6.42l-.75 4.22c1.69-1.67 3.43-2.88 5.26-3.65 1.81-.78 3.8-1.17 5.95-1.17 4.88 0 8.34 1.43 10.44 4.28 2.1 2.85 2.67 6.96 1.73 12.3l-3.73 21.16h-6.73l3.48-19.72c.69-3.93.47-6.85-.64-8.77-1.13-1.9-3.24-2.85-6.29-2.85-3.34 0-5.95 1.13-7.83 3.37-1.89 2.24-3.3 5.93-4.2 11.09l-2.97 16.88ZM569.84 159.43c-2.33 4.46-5.24 7.87-8.71 10.17-3.46 2.33-7.39 3.48-11.79 3.48-2.76 0-5.2-.49-7.27-1.44-2.09-.97-3.86-2.41-5.35-4.29-1.41-1.84-2.39-3.96-2.94-6.38-.57-2.42-.61-4.89-.17-7.41.46-2.61 1.33-5.01 2.62-7.28 1.27-2.25 2.96-4.32 5.01-6.19 2.28-2.06 4.71-3.6 7.28-4.65 2.58-1.07 5.21-1.61 7.94-1.61 4.25 0 7.73 1.2 10.44 3.54 2.73 2.35 4.4 5.66 5.07 9.9h-7.33c-.77-2.27-1.98-3.97-3.62-5.11-1.66-1.12-3.76-1.69-6.32-1.69-3.31 0-6.35 1.26-9.08 3.76-2.76 2.5-4.46 5.58-5.09 9.26-.66 3.69-.05 6.81 1.87 9.26 1.9 2.5 4.58 3.73 8.08 3.73 2.35 0 4.57-.61 6.67-1.84 2.12-1.23 3.89-2.96 5.35-5.21h7.31ZM609.67 149.97c-.31-3.04-1.32-5.41-3.07-7.1-1.76-1.69-4.06-2.51-6.93-2.51s-5.61.87-8.05 2.58c-2.45 1.73-4.35 4.08-5.69 7.04h23.73ZM584.68 155.98c.01 3.11.97 5.63 2.87 7.56 1.9 1.92 4.4 2.88 7.47 2.88 2.22 0 4.32-.54 6.32-1.58 1.99-1.07 3.71-2.56 5.12-4.49h7.53c-2.44 4.12-5.38 7.25-8.83 9.44-3.47 2.18-7.22 3.28-11.3 3.28-2.74 0-5.17-.49-7.27-1.46s-3.91-2.41-5.41-4.35c-1.41-1.82-2.39-3.94-2.94-6.36-.55-2.42-.61-4.89-.15-7.41.44-2.62 1.32-5.06 2.62-7.34 1.27-2.25 2.96-4.32 5.01-6.19 2.21-2.04 4.55-3.56 7.05-4.57 2.5-1.04 5.12-1.55 7.87-1.55 3.28 0 6.16.77 8.69 2.28 2.54 1.52 4.49 3.63 5.83 6.36.78 1.69 1.26 3.54 1.41 5.55.17 2.01.02 4.31-.43 6.91l-.18 1.03h-31.26ZM598.58 197.77c.41-2.3-.23-4.23-1.9-5.83-1.69-1.59-3.91-2.39-6.68-2.39-3.04 0-5.63.74-7.73 2.18-2.09 1.44-3.36 3.36-3.77 5.76-.41 2.28.18 4.17 1.79 5.64 1.59 1.47 3.83 2.21 6.72 2.21s5.43-.74 7.67-2.22c2.24-1.47 3.54-3.27 3.91-5.35M583.08 222.15h-7.87l13.22-12.6c-.72.23-1.41.38-2.04.49-.64.09-1.24.15-1.81.15-4.23 0-7.64-1.23-10.18-3.66-2.55-2.44-3.53-5.38-2.93-8.82.21-1.15.63-2.32 1.26-3.48.63-1.18 1.47-2.35 2.51-3.48 1.86-2.07 4.12-3.66 6.84-4.78 2.68-1.12 5.6-1.69 8.71-1.69 2.3 0 4.38.32 6.27.95 1.89.64 3.51 1.58 4.88 2.82 1.35 1.24 2.35 2.64 2.94 4.19.6 1.53.77 3.11.49 4.69-.57 3.17-3.65 7.44-9.26 12.77l-.2.21-12.83 12.23Z" class="st0"/><path d="M629.69,272.47l14.4-75.94c3.14-16.65,4.29-27.75,3.42-33.16-.87-5.41-4.77-11.73-11.68-18.86h33.04c12.82.15,22.77-3.16,29.87-9.94l-57.91,305.58c-3.19,16.85-4.35,28-3.46,33.41.87,5.41,4.77,11.74,11.67,18.86h-61.02l22.75-120.03c3.8-20.07,5.72-34.05,5.8-42.09.05-7.97-1.76-15.85-5.47-23.67-4.65-9.54-11.33-17-20.08-22.42-8.74-5.47-18.71-8.19-29.87-8.19-20.35,0-43.86,8.13-60.09,24.33-16.24,16.25-26.72,36.92-31.49,62.05-5.8,30.6-1.4,55.78,13.23,75.5,12.3,16.65,34.28,24.98,55.55,24.98,14.52,0,29.58-4.75,45.15-14.29l-36.98,47.39c-8.4,2.41-16.73,3.57-24.98,3.57-27.38,0-54.26-6.38-70.21-19.12-14.6-11.73-24.7-26.98-30.31-45.84-5.46-18.86-5.93-40.12-1.46-63.75,6.98-36.87,24.13-67.97,51.41-93.31,25.77-23.92,59.21-35.91,89.82-35.91,27.21,0,50.2,10.29,68.92,30.85" class="st0"/><path d="M391.05,293.08l34.36-44.59c13.2-4.26,24.53-6.38,34.01-6.38,22.66,0,55.7,8.23,70.91,24.73,21.89,23.27,28.95,55.58,21.13,96.87-8.22,43.33-32.73,77.79-66.19,103.48-27.93,21.57-72.32,32.35-112.25,32.35-35.31,0-64.46-3.16-87.45-9.43,6.72-3.91,11.48-8.32,14.32-13.25,2.84-4.91,5.34-12.88,7.44-23.96l48.53-256.12c3.16-16.67,4.32-27.69,3.51-33.07-.83-5.31-4.77-11.64-11.79-18.95h33.04c12.82.15,22.77-3.16,29.87-9.94l-60.85,321.13c14.04,4.11,27.21,6.12,39.45,6.12,25.08,0,57.73-7.97,75-23.92,17.77-16.36,29.16-37.67,34.14-64.01,5.18-27.34,2.82-49.66-7.05-66.91-9.89-17.22-36.81-25.83-57.77-25.83-12.85,0-26.95,3.91-42.35,11.68" style="fill:#d09b2c"/><path d="M820.71 436.33h38.91c14.18 0 27.2-2.39 39.07-7.24 11.85-4.81 21.33-10.87 28.46-18.17 7.11-7.27 11.36-14.58 12.76-21.94 2.76-14.69 1.17-26.05-4.81-34.1-5.98-8.05-16.57-13.58-31.75-16.6-15.16-3-36.26-4.52-63.29-4.52l-19.33 102.57ZM842.51 320.61h25.96c24.18 0 43.51-3.79 57.99-11.41 14.47-7.62 23.92-18.72 28.27-33.29.31-.89.63-2.19.97-3.96 1.56-8.32-.08-15.36-4.95-21.11-4.86-5.76-11.93-10.03-21.19-12.82-9.26-2.79-19.86-4.18-31.75-4.18h-38.91l-16.37 86.76ZM782.53 449.49l43.14-228.8h97.3c14.34 0 27 1.21 38.02 3.7 11.02 2.45 19.56 7.1 25.67 13.88 6.07 6.81 8 16.13 5.78 27.95-.38 1.98-.74 3.45-1.04 4.43-1.61 8.56-5.84 16.77-12.66 24.67-6.82 7.88-15.42 14.52-25.83 19.89-10.41 5.37-21.59 8.94-33.53 10.69 22.25 3.07 38.84 8.51 49.71 16.36 10.9 7.82 14.66 20.78 11.24 38.87-4.35 23.12-17.48 40.31-39.33 51.53-21.85 11.22-46.53 16.85-74.12 16.85h-84.34ZM1057.44 371.16c-2.62 13.94-1.92 28.65 2.12 44.14 4.02 15.49 15.35 23.81 33.95 25.02 14.64 0 27.86-6.69 39.63-19.99 11.76-13.32 20.68-32.61 26.72-57.8 2.88-15.26 3.65-28.78 2.35-40.63-1.35-11.79-5.04-20.97-11.16-27.46-6.09-6.47-14.63-9.71-25.62-9.71-15.93 0-30.08 7.94-42.45 23.86-12.37 15.9-20.51 34.25-24.42 55.01-.32 1.69-.67 4.2-1.1 7.56M1026.99 368.28c3.57-18.95 10.26-35.88 20.05-50.76 9.81-14.89 22-26.48 36.6-34.77 14.6-8.28 30.28-12.42 47.08-12.42 19.59 0 34.16 5.63 43.67 16.83 9.51 11.22 15.13 23.98 16.85 38.25 1.72 14.3 1.59 26.68-.37 37.12-1.89 9.97-5.29 20.01-10.21 30.16-4.94 10.13-11.51 19.79-19.73 28.9-8.25 9.12-18.17 16.48-29.76 22.05-11.62 5.61-24.19 8.39-37.78 8.39-.75 0-1.44-.03-2.09-.09-.63-.06-1.49-.09-2.58-.09-15.81 0-28.9-3.69-39.23-11.05-10.35-7.39-17.43-17.43-21.24-30.1-3.8-12.67-4.22-26.8-1.27-42.41M1224.25 448.96l33.68-178.63c3.6 1.44 7.45 2.15 11.54 2.15s8.85-.7 14.31-2.15l-5.44 28.81c3.63-5.03 8.28-9.98 13.94-14.86 5.66-4.88 11.9-8.88 18.75-12.07 6.84-3.19 13.45-4.78 19.79-4.78 9.8 0 17.51.95 23.12 2.81 5.63 1.86 10.23 5.37 13.78 10.53 3.54 5.17 6.98 13.2 10.3 24.12 4.77-8.16 10.46-15.12 17.02-20.87 6.58-5.76 13.42-9.97 20.47-12.62 7.07-2.64 14.15-3.97 21.25-3.97 10.99 0 20.1 2.68 27.32 8.02 7.24 5.33 12.25 12.34 15.04 20.97 2.76 8.66 3.31 17.54 1.59 26.66-.41 2.16-.78 3.77-1.09 4.88l-22.8 121c-3.62-1.44-7.91-2.16-12.85-2.16s-10.15.72-15.59 2.16l22.26-118.13c2.42-12.85.71-23.14-5.15-30.89-5.86-7.73-13.75-11.61-23.66-11.61-6.13 0-12.28 1.75-18.43 5.23-6.13 3.48-11.81 8.88-16.94 16.21-5.15 7.31-9.11 16.27-11.84 26.83l-21.19 112.37c-3.6-1.44-7.79-2.16-12.51-2.16s-9.18.72-13.34 2.16l22.28-118.13c1.53-8.17 1.09-15.36-1.33-21.6-2.44-6.26-6.3-11.1-11.62-14.58-5.32-3.5-11.21-5.24-17.68-5.24-9.69 0-18.77 3.94-27.25 11.81-8.49 7.87-14.55 19.67-18.15 35.39l-21.19 112.37c-3.59-1.44-7.88-2.16-12.82-2.16s-10.15.72-15.59 2.16M1553.49 365.41c-.94 3.83-1.58 6.72-1.95 8.63-2.13 11.28-2.55 21.99-1.21 32.14 1.32 10.15 4.72 18.37 10.2 24.68 5.49 6.29 13.09 9.46 22.77 9.46 8.72 0 17.43-2.97 26.16-8.92 8.71-5.95 16.38-14.8 23.03-26.56 6.62-11.78 11.47-25.87 14.57-42.32 2.44-12.86 3.2-24.73 2.3-35.68-.89-10.92-3.99-19.72-9.21-26.46-5.26-6.73-12.71-10.09-22.42-10.09-1.5 0-2.7.06-3.59.2-6.35 0-12.74 1.96-19.12 5.92-6.39 3.97-12.42 9.44-18.03 16.39-5.63 6.99-10.49 14.99-14.55 24.04-4.08 9.08-7.07 18.58-8.94 28.56M1509.32 448.96l51.61-273.71c3.6 1.43 8.19 2.15 13.8 2.15s10.49-.72 14.61-2.15l-24.99 132.53c4.71-6.01 10.59-11.64 17.66-16.94 7.07-5.27 14.66-9.54 22.75-12.77 8.1-3.25 15.75-4.86 22.97-4.86 14.32 0 25.88 4.05 34.7 12.14 8.8 8.1 14.57 18.83 17.28 32.17 2.71 13.31 2.65 27.41-.15 42.3-2.18 11.51-5.8 22.69-10.84 33.52-5.03 10.78-11.47 20.61-19.27 29.44-7.8 8.8-16.96 16.11-27.46 21.86-10.52 5.77-21.74 9.12-33.64 10.09-9.15 0-17.72-2.19-25.74-6.58-7.99-4.39-15.03-10.84-21.07-19.35l-24.47 20.16h-7.74ZM1811.42 411.5l9.94-48.97c-18.31 1.79-33.1 4.37-44.37 7.73-11.3 3.36-19.99 7.83-26.06 13.42-6.09 5.58-10 12.59-11.7 20.99-.54 2.64-.89 5.87-1.09 9.74-.17 5.4 2.45 10.38 7.9 14.95 5.41 4.55 12.14 6.82 20.19 6.82 15.01 0 30.08-8.2 45.2-24.67M1708.54 408.61c1.62-8.03 4.54-15.18 8.72-21.43 4.17-6.24 10.03-11.68 17.57-16.39 7.51-4.68 16.99-8.39 28.38-11.15l46.5-8.65c5.33-1.07 9.63-3.45 12.89-7.13 3.25-3.63 5.4-8.05 6.44-13.22 1.32-6.49.87-13.06-1.33-19.73-2.19-6.65-6.12-12.22-11.71-16.65-5.64-4.43-12.76-6.65-21.39-6.65-8.03 0-15.62 2.05-22.75 6.12-7.1 4.09-15.27 10.69-24.45 19.81h-5.6l4.09-20.18c7.74-4.2 14.52-7.62 20.36-10.26 5.84-2.64 12.45-4.95 19.84-6.93 7.39-1.98 14.93-2.97 22.63-2.97 21.2 0 35.78 4.74 43.76 14.21 7.99 9.51 9.81 24.93 5.47 46.29l-18.71 92.21c-1.39 6.85 1.12 10.26 7.53 10.26 2.21 0 5.64-.54 10.29-1.63l-1.75 8.65c-6.7 4.8-14 7.21-21.94 7.21-7.1 0-13.19-1.98-18.28-5.93-5.06-3.97-7.47-9.18-7.21-15.67-21.08 17.17-41.1 25.74-60.1 25.74-13.65 0-24.22-4.48-31.78-13.42-7.59-8.94-10.07-19.78-7.48-32.5M1908.66 273.2c6.18 1.44 12.3 2.15 18.34 2.15s11.1-.7 15.26-2.15c.29 4.68 1.5 13.98 3.62 27.92 2.12 13.91 3.89 25.14 5.37 33.65 1.46 8.54 3.62 20.27 6.52 35.22 2.9 14.95 5.58 27.83 8.06 38.62 6.76-10.69 16.04-26.25 27.87-46.72 11.82-20.48 22.12-38.96 30.88-55.49 8.77-16.5 14.06-27.57 15.88-33.21 3.6 1.44 7.33 2.15 11.22 2.15s7.9-.7 12.02-2.15l-148.87 253.98c-2.32-1.41-5.4-2.15-9.28-2.15s-8.54.74-13.98 2.15l51.68-81.11-34.59-172.87ZM2191.98 236.13l-37.07 199.23c11.36.89 21.45 1.32 30.27 1.32 19.29 0 36.03-1.98 50.3-5.96 14.24-3.99 26.52-10.1 36.84-18.35 10.32-8.25 19.04-19.03 26.2-32.38 7.18-13.32 13.17-29.81 18.01-49.48 1.1-4.8 1.87-8.23 2.25-10.3 6.22-33.44.67-56.33-16.62-68.66-17.31-12.34-39.97-18.52-67.95-18.52-8.94 0-23.03 1.04-42.24 3.11M2163.87 220.39h105.96c23.67 0 42.18 4.74 55.5 14.24 13.29 9.51 21.77 22.4 25.41 38.68 3.66 16.27 3.6 34.45-.14 54.57-2.25 12.11-6.27 24.79-12.07 37.99-5.81 13.23-14.07 26.17-24.82 38.85-10.76 12.68-24.25 23.26-40.48 31.78-16.24 8.53-35.13 13.39-56.68 14.58h-95.61l42.93-230.7ZM2706.66 342.82c3.02-17.17 1.79-31.48-3.73-42.91-5.52-11.45-17.63-17.16-36.4-17.16-10.96 0-21.04 3.07-30.22 9.2-9.2 6.13-16.83 13.94-22.86 23.44-6.04 9.47-9.81 18.63-11.38 27.43h104.58ZM2560.51 362.85c3.56-20.15 10.63-37.36 21.2-51.67 10.56-14.3 23.41-25.01 38.53-32.11 15.12-7.07 31.38-10.63 48.82-10.63 20.08 0 35.68 4.15 46.82 12.42 11.16 8.28 18.34 18.28 21.57 29.94 3.22 11.7 3.86 23.07 1.92 34.16-.9 5.14-2.1 9.2-3.54 12.16h-136.27c-2.67 15.15-2.79 27.97-.34 38.44 2.42 10.5 8.34 18.63 17.79 24.42 9.4 5.76 22.61 8.66 39.66 8.66 11.22 0 22.29-2.04 33.24-6.07 10.96-4.06 20.24-9.66 27.83-16.82l-.35 20.02c-11.38 6.09-19.7 10.38-24.95 12.88-5.27 2.5-12.31 4.81-21.13 6.88-8.82 2.1-19.12 3.14-30.86 3.14-20.71-.86-37.36-5.28-49.94-13.32-12.59-8.06-21.11-18.4-25.62-31.03-4.52-12.63-5.98-26.45-4.38-41.49M2774.87 443.45l31.28-177.38c6.53 1.43 10.1 2.13 16.6 2.13s10.2-.7 15.55-2.13l-31.29 177.38c-4.83-1.44-8.28-2.13-14.78-2.13s-10.32.69-17.36 2.13M2809.9 239.13l5.15-29.21c6.53 1.43 10.09 2.13 16.6 2.13s10.2-.7 15.53-2.13l-5.14 29.21c-4.85-1.44-8.29-2.15-14.8-2.15s-10.32.7-17.36 2.15M2860.02 442.96l31.28-177.38c4.55 1.43 8.14 2.13 15.13 2.13s13-.7 18.09-2.13l-5.55 31.48c5.52-5.37 12.07-9.49 15.26-12.33 3.19-2.88 7.7-6.1 13.48-9.68 5.81-3.57 12.66-6.53 20.59-8.86 7.94-2.3 16.79-3.48 26.59-3.48 11.41 0 21.57 2.55 30.48 7.62 8.91 5.06 15.36 13.19 19.36 24.39 3.99 11.21 4.48 25.33 1.47 42.38l-18.66 105.85c-4.55-1.44-9.54-2.13-14.92-2.13s-7.73.69-16.04 2.13l18.67-105.85c2.91-16.56-1.63-29.35-9.11-38.36-7.48-9-19.73-13.49-32.33-13.49-8.6 0-17.19 2.21-25.76 6.61-8.54 4.42-18.18 10.99-24.49 19.76-6.32 8.77-12.82 19.17-14.95 31.2l-17.65 100.13c-6.19-1.44-8.95-2.13-14.34-2.13s-9.94.69-16.62 2.13M3128.94 331.39c-2.38 12.51.34 22.8 8.17 30.83 7.8 8.05 18.29 12.07 31.46 12.07 2.41.26 4.23.37 5.46.37 8.42 0 16.77-1.89 25.07-5.63 8.28-3.76 15.47-9.14 21.53-16.1 6.09-6.98 10-15.1 11.76-24.41 2.9-15.24.37-27.17-7.57-35.75-7.96-8.57-19.49-12.88-34.65-12.88-19.7 1.3-34.25 7.19-43.65 17.6-9.41 10.44-15.26 21.74-17.57 33.9M3099.37 512.33c10.09 8.8 26.37 13.58 49.52 13.58 10.66 0 21.92-1.41 33.84-4.28 11.87-2.87 22.26-7.25 31.06-13.32 16.87-11.65 26.57-47.22.2-59.29-8.89-4.06-22.94-6.07-42.15-6.07-14.61 0-27.57 1.01-38.84 3.04-11.28 2.04-20.91 6.03-28.87 11.97-7.99 5.98-27.89 34.25-4.77 54.37M3100.93 317.08c4.37-11.81 11.15-21.34 20.31-28.62 9.18-7.27 19.52-12.42 31.02-15.46 11.5-3.04 23.46-4.55 35.83-4.55s21.13.17 26.6.54c5.49.37 9.35.75 11.54 1.15 2.21.43 5.17.84 8.88 1.27 3.68.4 9.72.61 18.12.61 10.4 0 23.83-.23 40.29-.71l-2.53 14.31-50.75-2.87c4.94 2.74 9.34 6.75 13.26 11.97 3.92 5.24 6.67 11.05 8.25 17.43 1.58 6.38 1.81 12.79.67 19.23-5.38 17.65-14.34 30.33-26.8 38.09-12.48 7.76-27.58 12.31-45.34 13.68-17.74 1.36-31.78 2.24-42.1 2.61-10.3.34-16.77 2.24-19.36 5.72-2.68 3.92-4.26 7.16-4.71 9.66-.9 5.1 1.37 9.05 6.78 11.79 5.43 2.74 12.53 4.57 21.25 5.44 8.76.9 18.89 1.35 30.42 1.35 3.83 0 7.28-.03 10.38-.09 3.07-.06 6.73-.08 11.01-.08 5.26 0 9.29.17 12.08.54 17.28 2.96 29.5 8.02 36.72 15.09 7.22 7.11 10.36 18.28 9.38 33.53-.01.84-.15 2.08-.46 3.77-1.36 7.74-5.21 15.61-11.51 23.6-6.35 7.99-14.99 15.38-26.02 22.17-11.04 6.81-23.63 12.14-37.76 16.08-14.14 3.94-29.54 5.9-46.21 5.9s-31.29-2.28-43.41-6.88c-12.16-4.58-21.11-10.81-26.82-18.67-5.75-7.87-7.8-16.51-6.13-25.94 2.5-14.17 7.94-25.1 16.36-32.81 8.4-7.67 20.62-12.96 36.66-15.82-17.17-6.07-24.59-15.61-22.31-28.59 1-5.6 2.9-10.21 5.77-13.86 2.85-3.63 6.7-6.95 11.58-9.92 4.86-2.99 11.36-6.5 19.49-10.56-16.59-4.52-26.63-10.9-30.16-19.12-3.56-8.23-4.18-18.78-1.92-31.64l1.64-9.31ZM2384.61 268.07c7.11 1.44 14.12 2.15 21.02 2.15s12.68-.7 17.36-2.15c.52 4.66 2.27 13.94 5.24 27.83 2.97 13.88 5.44 25.08 7.47 33.56 1.99 8.49 4.95 20.19 8.85 35.1 3.89 14.9 7.48 27.74 10.73 38.5 7.3-10.66 17.3-26.17 30.01-46.58 12.7-20.41 23.73-38.82 33.09-55.3 9.37-16.44 14.96-27.48 16.83-33.1 4.17 1.44 8.46 2.15 12.89 2.15s8.98-.7 13.66-2.15l-160.04 253.18c-2.7-1.43-6.24-2.15-10.69-2.15s-9.74.72-15.88 2.15l55.84-80.86-46.38-172.32Z" class="st0"/></svg>